<?xml version="1.0" encoding="utf-8"?>
<!-- Generator: Adobe Illustrator 16.0.0, SVG Export Plug-In . SVG Version: 6.00 Build 0)  -->
<svg version="1.2" baseProfile="tiny" id="Calque_1"
	 xmlns="http://www.w3.org/2000/svg" xmlns:xlink="http://www.w3.org/1999/xlink" x="0px" y="0px" width="62px" height="60px"
	 viewBox="0 0 62 60" xml:space="preserve">
<g>
	<path fill="#FFFFFF" d="M38.154,21.653h16.688v2.384H38.154V21.653z"/>
	<path fill="#FFFFFF" d="M38.152,35.963h16.69v2.385h-16.69V35.963z"/>
	<path fill="#FFFFFF" d="M38.152,28.807h11.905v2.383H38.152V28.807z"/>
	<path fill="#FFFFFF" d="M35.766,7.346V0.192h-9.536v7.153H0v52.463h62V7.346H35.771H35.766z M59.617,9.73v4.77H35.771V9.73H59.617z
		 M28.613,2.577h4.769V14.5h-4.769V2.577z M2.384,9.73h23.845v4.77H2.384V9.73z M2.384,57.424V16.886h57.233v40.538H2.384z"/>
	<path fill="#FFFFFF" d="M35.148,46.828c-1.72-0.719-5.784-2.131-8.301-2.875c-0.214-0.066-0.245-0.078-0.245-0.971
		c0-0.738,0.302-1.479,0.597-2.107c0.319-0.686,0.701-1.832,0.837-2.859c0.382-0.447,0.901-1.32,1.239-2.988
		c0.291-1.467,0.157-2.002-0.039-2.504c-0.02-0.053-0.041-0.104-0.059-0.156c-0.074-0.348,0.028-2.133,0.279-3.521
		c0.173-0.95-0.043-2.976-1.355-4.652c-0.825-1.059-2.408-2.356-5.305-2.538l-1.589,0.002c-2.844,0.18-4.431,1.479-5.255,2.536
		c-1.312,1.677-1.529,3.702-1.357,4.652c0.255,1.389,0.355,3.174,0.282,3.514c-0.014,0.061-0.037,0.111-0.06,0.164
		c-0.193,0.502-0.331,1.037-0.036,2.504c0.331,1.668,0.853,2.541,1.236,2.988c0.132,1.027,0.514,2.174,0.837,2.859
		c0.234,0.5,0.347,1.18,0.347,2.143c0,0.893-0.033,0.904-0.233,0.967c-2.601,0.77-6.744,2.266-8.288,2.941
		c-1.226,0.521-1.522,1.465-1.522,2.316c0,0.24,0,0.609,0,1.029h2.385v-1.029c0-0.039,0.002-0.066,0.004-0.092
		c0.02-0.012,0.048-0.023,0.089-0.039c1.465-0.645,5.53-2.107,8.053-2.854c1.899-0.602,1.899-2.383,1.899-3.24
		c0-1.324-0.183-2.324-0.574-3.158c-0.239-0.51-0.534-1.412-0.63-2.152l-0.094-0.709l-0.468-0.545
		c-0.072-0.082-0.437-0.553-0.7-1.893c-0.184-0.902-0.118-1.07-0.081-1.168c0.062-0.156,0.115-0.307,0.165-0.523
		c0.21-0.965-0.067-3.372-0.263-4.444c-0.067-0.353,0.026-1.659,0.887-2.761c0.753-0.965,1.918-1.511,3.459-1.62l1.43-0.002
		c1.571,0.111,2.748,0.657,3.503,1.622c0.861,1.102,0.952,2.408,0.889,2.759c-0.196,1.073-0.474,3.477-0.266,4.45l0.02,0.094
		l0.025,0.088c0.031,0.107,0.069,0.205,0.118,0.34c0.039,0.1,0.105,0.264-0.073,1.166c-0.272,1.34-0.639,1.82-0.709,1.898L25.761,37
		l-0.093,0.703c-0.098,0.742-0.391,1.648-0.629,2.158c-0.387,0.818-0.828,1.914-0.828,3.125c0,0.857,0,2.641,1.958,3.258
		c2.382,0.705,6.374,2.084,8.034,2.779c0.253,0.105,0.344,0.236,0.368,0.287v0.963h2.385c0-0.42,0-0.791,0-1.029
		c0-0.85-0.589-1.889-1.812-2.416H35.148z"/>
</g>
</svg>
