<?xml version="1.0" encoding="utf-8"?>
<!-- Generator: Adobe Illustrator 16.0.0, SVG Export Plug-In . SVG Version: 6.00 Build 0)  -->
<svg version="1.2" baseProfile="tiny" id="Calque_1"
	 xmlns="http://www.w3.org/2000/svg" xmlns:xlink="http://www.w3.org/1999/xlink" x="0px" y="0px" width="76px" height="62px"
	 viewBox="0 0 76 62" xml:space="preserve">
<g>
	<path fill="#FFFFFF" d="M66.146,11.277V0.007H0v50.717h9.852v11.27H76V11.277H66.146z M2.817,47.908V2.827h60.516v8.453H9.852
		v36.628H2.814H2.817z M73.186,59.18H12.668V14.098h60.517V59.18z"/>
	<path fill="#FFFFFF" d="M54.356,28.069c-1.041-2.078-3.474-2.928-5.525-1.928c-2.054,0.998-2.847,3.413-1.805,5.493
		c1.041,2.077,3.474,2.927,5.525,1.928C54.604,32.564,55.398,30.148,54.356,28.069z M48.493,30.921
		c-0.634-1.263-0.164-2.69,1.084-3.296c1.246-0.606,2.681-0.105,3.314,1.156c0.633,1.263,0.164,2.69-1.084,3.296
		C50.563,32.685,49.127,32.183,48.493,30.921z"/>
	<path fill="#FFFFFF" d="M36.883,55.034l5.441-11.879l-0.003-0.001c5.276-2.566,11.286-5.488,13.485-6.559
		c4.104-1.997,8.297-7.454,8.811-13.519c-5.203-3.285-12.15-3.32-16.326-1.289c-2.199,1.07-8.208,3.994-13.484,6.561L21.999,25.35
		L36.883,55.034 M27.184,32.056l-2.158-4.303l7.508,1.7L27.184,32.056z M33.881,45.414L27.928,33.54l21.106-10.269
		c3.299-1.605,9.104-1.845,13.824,0.661c-0.851,5.214-4.498,9.575-7.869,11.214L33.882,45.417L33.881,45.414z M39.977,44.298
		l-3.191,6.905l-2.159-4.305C35.873,46.294,37.777,45.366,39.977,44.298z"/>
	<path fill="#FFFFFF" d="M27.601,40.163l0.744,1.484l-7.328,3.564l-0.745-1.485L27.601,40.163z"/>
	<path fill="#FFFFFF" d="M29.46,43.874l0.745,1.484l-4.396,2.138l-0.745-1.484L29.46,43.874z"/>
	<path fill="#FFFFFF" d="M25.74,36.452l0.744,1.485l-4.396,2.139l-0.745-1.486L25.74,36.452z"/>
</g>
</svg>
