<?xml version="1.0" encoding="utf-8"?>
<!-- Generator: Adobe Illustrator 16.0.0, SVG Export Plug-In . SVG Version: 6.00 Build 0)  -->
<svg version="1.2" baseProfile="tiny" id="Calque_1"
	 xmlns="http://www.w3.org/2000/svg" xmlns:xlink="http://www.w3.org/1999/xlink" x="0px" y="0px" width="62px" height="62px"
	 viewBox="0 0 62 62" xml:space="preserve">
<path fill="#FFFFFF" d="M52.476,11.333l6.972-6.974v5.727h2.491V0.125h-9.96v2.491h5.728l-6.975,6.974
	C44.383,3.612,36.041,0,26.704,0C16.495,0,6.783,4.483,0.06,12.077l1.867,1.618c0.251-0.25,0.498-0.497,0.748-0.747l22.287,22.411
	l-8.34,8.339h-6.228L1.68,52.414h7.967v7.967l8.714-8.713V45.44l8.342-8.34L48.99,59.388c-0.249,0.251-0.497,0.497-0.746,0.748
	L49.86,62c7.722-6.721,12.076-16.432,12.076-26.641c0.123-9.338-3.483-17.807-9.461-24.029V11.333z M4.419,11.208
	c5.975-5.603,13.942-8.714,22.287-8.714c8.589,0,16.435,3.361,22.287,8.714L26.706,33.494L4.419,11.208z M50.856,57.648
	L28.447,35.361l22.286-22.288c5.481,5.853,8.714,13.697,8.714,22.288C59.572,43.578,56.337,51.546,50.856,57.648z"/>
</svg>
